<svg width="180" height="120" xmlns="http://www.w3.org/2000/svg">

 <g>
  <title>background</title>
  <rect fill="none" id="canvas_background" height="122" width="182" y="-1" x="-1"/>
 </g>
 <g>
  <title>Layer 1</title>
  <g id="svg_3" class="icon-text-wrapper icon-svg-group iconsvg" fill="#FFBD4A">
   <g id="svg_4" class="iconsvg-imagesvg">
    <g id="svg_5">
     <rect id="svg_6" class="image-rect" height="68.01457" width="73.2" y="8.5554" x="13.74953" stroke-width="2" fill-opacity="0" fill="#FFBD4A"/>
     <g y="73.55539" x="93.74953" id="svg_1">
      <svg id="svg_7" class="image-svg-svg primary" height="68.01457" width="73.2" y="9.5554" x="14.74953">
       <svg id="svg_8" viewBox="0 -2.384185791015625e-7 39.95000076293945 37.119998931884766">
        <g id="svg_9">
         <g id="svg_10">
          <path id="svg_11" d="m7.52,0l0,2.48l-2.52,0l0,13.68l5.81,0l0,2.48l-10.81,0l0,2.47l2.48,0l0,16.01l12.21,0l0,-13.4l16.62,0l0,-2.61l2.53,0l0,-5.12l-16.63,0l0,-8.26l18.01,0l0.01,-2.78l0.02,-2.47l0.02,-2.48l-27.75,0z" fill="#FF4057"/>
          <path id="svg_12" d="m0,13.69l2.48,0l0,2.47l-2.48,0l0,-2.47z" fill="#FF4057"/>
          <path id="svg_13" d="m32.81,0l-25.29,0l0,16.16l3.29,0l0,2.48l-5.81,0l0,18.48l12.21,0l0,-10.92l-2.52,0l0,-2.48l19.15,0l0,-2.61l5.18,0l0,-2.47l-2.66,0l0,-2.65l-16.62,0l0,-8.26l18,0l0.02,-2.78l-2.53,0l0.02,-2.47l4.7,0l0,-2.48l-7.14,0z" fill="#00d8eb"/>
          <path id="svg_14" d="m19.69,32.17l2.48,0l0,2.47l-2.48,0l0,-2.47zm2.47,2.47l2.48,0l0,2.47l-2.48,0l0,-2.47z" fill="#00d8eb"/>
          <path id="svg_15" d="m31.31,23.72l0,-2.61l2.53,0l0,-5.12l-16.63,0l0,-8.26l18.01,0l0.01,-2.78l0.02,-2.47l0.02,-2.48l-27.75,0l0,16.16l3.29,0l0,2.48l-5.81,0l0,18.48l9.69,0l0,-13.4l16.62,0z" fill="#50554A"/>
         </g>
        </g>
       </svg>
      </svg>
     </g>
    </g>
   </g>
   <g id="svg_16">
    <g id="svg_17" class="tp-name iconsvg-namesvg">
     <g id="svg_18" transform="translate(93.74952697753906,73.55538940429688) scale(0.8999999761581421) ">
      <g id="svg_19">
       <path id="svg_20" d="m-54.58372,13.34953l-22.8,0c-1,0 -1.38,0.8107 -0.84,1.8271l0.34,0.6534c0.21,0.4598 0.29,0.7623 0.29,1.2221l0,23.5224c0,0.968 0.46,1.5246 1.26,1.5246l21.5,0c1.64,0 2.77,-1.4157 2.77,-3.4001l0,-8.591c0,-0.8107 -0.25,-1.4157 -0.76,-1.8755l-0.58,-0.5566c-0.47,-0.4598 -0.47,-1.0164 0,-1.4278l0.58,-0.5082c0.55,-0.4598 0.76,-1.0648 0.76,-1.8755l0,-7.4657c0,-1.9844 -0.88,-3.0492 -2.52,-3.0492zm-5.42,5.8927l0,4.2592c0,0.6655 -0.29,1.0164 -0.83,1.0164l-7.9,0c-0.54,0 -0.84,-0.3509 -0.84,-1.0164l0,-4.2592c0,-0.6655 0.3,-1.0164 0.84,-1.0164l7.9,0c0.54,0 0.83,0.3509 0.83,1.0164zm0,11.1683l0,5.7959c0,0.6655 -0.29,1.0164 -0.83,1.0164l-7.9,0c-0.54,0 -0.84,-0.3509 -0.84,-1.0164l0,-5.7959c0,-0.6534 0.3,-1.0164 0.84,-1.0164l7.9,0c0.54,0 0.83,0.363 0.83,1.0164zm14.24,-15.5364l0.5,0.9559c0.21,0.4598 0.3,0.7623 0.3,1.2221l0,23.5224c0,0.968 0.46,1.5246 1.26,1.5246l19.9,0c0.79,0 1.26,-0.5566 1.26,-1.5246l0,-1.8271c0,-0.968 -0.47,-1.5246 -1.26,-1.5246l-12.05,0c-0.55,0 -0.84,-0.3509 -0.84,-1.0164l0,-5.7959c0,-0.6534 0.29,-1.0164 0.84,-1.0164l10.58,0c0.79,0 1.26,-0.5566 1.26,-1.5246l0,-1.8271c0,-0.9559 -0.47,-1.5246 -1.26,-1.5246l-10.58,0c-0.55,0 -0.84,-0.3509 -0.84,-1.0164l0,-4.2592c0,-0.6655 0.29,-1.0164 0.84,-1.0164l11.29,0c0.8,0 1.26,-0.5566 1.26,-1.5246l0,-1.8271c0,-0.968 -0.46,-1.5246 -1.26,-1.5246l-20.19,0c-1.01,0 -1.47,0.6534 -1.01,1.5246zm28.55,0l0.5,0.9559c0.21,0.4598 0.3,0.7623 0.3,1.2221l0,23.5224c0,0.968 0.46,1.5246 1.26,1.5246l4.66,0c0.79,0 1.26,-0.5566 1.26,-1.5246l0,-13.8666c0,-0.968 0.54,-1.2221 1,-0.4114l8.53,14.8346c0.37,0.7139 0.84,0.968 1.51,0.968l5.79,0c0.8,0 1.26,-0.5566 1.26,-1.5246l0,-25.7004c0,-0.968 -0.46,-1.5246 -1.26,-1.5246l-4.41,0c-0.79,0 -1.26,0.5566 -1.26,1.5246l0,14.3748c0,0.968 -0.54,1.1132 -1,0.3509l-8.95,-15.2944c-0.37,-0.6534 -0.84,-0.9559 -1.51,-0.9559l-6.67,0c-1.01,0 -1.47,0.6534 -1.01,1.5246zm58.15,25.7004l0,-3.7631c0,-1.3673 -0.76,-1.7182 -1.56,-0.7623l-0.54,0.6655c-0.29,0.3509 -0.59,0.5082 -1.01,0.5082l-13.6,0c-0.55,0 -0.84,-0.3509 -0.84,-1.0164l0,-16.9642c0,-0.6655 0.29,-1.0164 0.84,-1.0164l15.45,0c0.8,0 1.26,-0.5566 1.26,-1.5246l0,-1.8271c0,-0.968 -0.46,-1.5246 -1.26,-1.5246l-21.62,0c-1.64,0 -2.52,1.0648 -2.52,3.0492l0,22.3003c0,2.2869 1.38,3.4001 2.85,3.4001l21.29,0c0.8,0 1.26,-0.5566 1.26,-1.5246zm6.09,-25.7004l0.5,0.9559c0.21,0.4598 0.29,0.7623 0.29,1.2221l0,23.5224c0,0.968 0.47,1.5246 1.26,1.5246l5.46,0c0.8,0 1.26,-0.5566 1.26,-1.5246l0,-10.164c0,-0.6534 0.3,-1.0164 0.84,-1.0164l7.73,0c0.54,0 0.84,0.363 0.84,1.0164l0,10.164c0,0.968 0.46,1.5246 1.26,1.5246l5.41,0c0.8,0 1.26,-0.5566 1.26,-1.5246l0,-25.7004c0,-0.968 -0.46,-1.5246 -1.26,-1.5246l-6.46,0c-1.01,0 -1.39,0.8107 -0.84,1.8271l0.33,0.6534c0.21,0.4598 0.3,0.7623 0.3,1.2221l0,6.4493c0,0.6655 -0.3,1.0164 -0.84,1.0164l-7.73,0c-0.54,0 -0.84,-0.3509 -0.84,-1.0164l0,-8.6273c0,-0.968 -0.46,-1.5246 -1.26,-1.5246l-6.51,0c-1,0 -1.47,0.6534 -1,1.5246z"/>
      </g>
     </g>
    </g>
    <g id="svg_21" fill="#FF4057" class="tp-slogan iconsvg-slogansvg">
     <g id="svg_22" transform="translate(93.74952697753906,73.55538940429688) scale(1) ">
      <g id="svg_23" transform="translate(9.377342224121094,77.01457214355469) scale(9.859999656677246) ">
       <path id="svg_24" d="m0.17199,-8.76892l-0.16,-0.16c-0.22,-0.22 -0.44,-0.14 -0.44,0.18l0,0.88c0,0.23 0.13,0.36 0.36,0.36l5.65,0c0.47,0 0.82,-0.35 0.82,-0.82l0,-2.72c0,-0.52 -0.29,-0.79 -0.79,-0.79l-3.52,0c-0.16,0 -0.24,-0.09 -0.24,-0.24l0,-0.89c0,-0.16 0.08,-0.24 0.24,-0.24l3.95,0c0.23,0 0.36,-0.13 0.36,-0.36l0,-0.38c0,-0.23 -0.13,-0.36 -0.36,-0.36l-6.41,0c-0.29,0 -0.4,0.19 -0.24,0.43l0.1,0.15c0.06,0.11 0.08,0.18 0.08,0.29l0,2.38c0,0.23 0.13,0.36 0.36,0.36l3.95,0c0.15,0 0.24,0.08 0.24,0.24l0,1.57c0,0.16 -0.09,0.24 -0.24,0.24l-3.42,0c-0.12,0 -0.21,-0.04 -0.29,-0.12z"/>
      </g>
     </g>
    </g>
   </g>
  </g>
 </g>
</svg>